<svg width="18" height="13" viewBox="0 0 18 13" fill="none" xmlns="http://www.w3.org/2000/svg">
<path d="M15.3552 7.09004V6.59004C15.3646 5.09936 14.7834 3.66561 13.7387 2.60219C12.694 1.53877 11.2708 0.93219 9.78023 0.915039H9.72523C8.43627 0.918753 7.18746 1.36387 6.18674 2.17627C5.18602 2.98868 4.49376 4.11935 4.22523 5.38004C3.23465 5.38004 2.28464 5.77355 1.58419 6.474C0.883742 7.17444 0.490234 8.12446 0.490234 9.11504C0.490234 10.1056 0.883742 11.0556 1.58419 11.7561C2.28464 12.4565 3.23465 12.85 4.22523 12.85H14.5652C15.2788 12.8578 15.9706 12.6048 16.5109 12.1387C17.0512 11.6726 17.4028 11.0253 17.4998 10.3183C17.5967 9.61139 17.4324 8.89334 17.0375 8.29896C16.6427 7.70458 16.0445 7.27472 15.3552 7.09004Z" fill="#0085FF"/>
</svg>
