<svg width="39" height="23" viewBox="0 0 39 23" fill="none" xmlns="http://www.w3.org/2000/svg">
<path d="M38.3771 11.4767L37.3211 9.74752L37.9019 9.94551L37.3211 8.59916L36.6479 6.76441L36.0672 8.69155L35.4864 10.1303L35.8692 10.0379L34.9056 11.8727L35.6712 11.5823L34.998 12.9286L34.9056 13.3114L35.196 13.4038L35.394 13.2058L35.196 14.4598L34.9056 14.5522L34.8132 14.4598V14.2618L35.0112 13.7866L34.6284 13.4038V13.021L34.8264 12.6382L34.1532 11.1995L33.678 9.08754L33.2952 11.1995L32.6221 13.0342L32.9125 12.6514V13.3246L32.7145 13.615L31.4605 11.3051L32.4241 11.1071L31.1701 8.88954L31.7509 9.27233V8.88954L30.4045 5.90644L29.639 3.50412L28.8734 6.57962L28.0022 9.56272L28.6754 9.47033L27.4214 12.163L27.7118 12.361L28.385 11.6879L27.4214 14.1958L28.0946 13.5226L28.0022 14.4862L27.329 14.7766L26.2731 12.8494L27.1442 13.3246L25.9959 11.1071L26.8671 11.5823L25.4283 8.98194L24.6627 6.47402L23.6992 9.65512L22.5508 11.6747H23.1316L21.8776 14.275L22.5508 13.8922L22.1152 14.8426H20.9668L20.0033 12.823L20.6765 13.4038H21.2572L20.3861 11.2919L20.9668 11.3843L19.7129 8.78395L21.0592 9.25914L19.9109 7.62238L20.782 7.91278L19.3433 4.83727L18.8681 2.52734L18.1949 0.309814L17.4294 2.42175L16.8486 4.63928L15.3042 7.2396L15.885 6.65882L15.1194 8.87634L15.885 8.29556L14.1559 12.0442L15.1194 11.6615L14.0635 14.3542L14.7366 14.0638L14.4463 14.935H13.9315L13.2583 13.3906H14.1295L12.6907 11.4635L13.3639 11.5559L12.0175 9.62872L11.054 7.99197L10.1828 9.72112L9.12682 11.7407H9.7076L9.31162 12.7306L8.73083 13.9846H9.31162V14.3674L9.02123 14.7502L8.54604 14.9482L8.07086 15.0406L6.8169 12.7306H7.49007L6.52651 10.2227L5.94572 8.49356L5.27255 10.3283L4.40137 12.4402L4.87656 12.1498L4.11098 13.879L3.7282 13.1134L3.25301 11.8595L2.67223 13.2982L2.28944 14.1694L2.67223 14.3674V14.5654L2.47424 14.8558L1.89346 14.7634V14.5654L2.27624 14.3674L1.80106 13.6942L1.32587 12.6382L1.03548 10.8035L0.652695 12.7306L0.362305 13.3114C4.78416 18.6968 11.4895 22.1287 19.0001 22.1287C26.9067 22.1287 33.9156 18.3272 38.3243 12.4534L37.8095 11.2919L38.3771 11.4767Z" fill="#2A2A2A"/>
</svg>
