<svg width="36" height="14" viewBox="0 0 36 14" fill="none" xmlns="http://www.w3.org/2000/svg">
<path d="M0 4C0 1.79086 1.79086 0 4 0H32C34.2091 0 36 1.79086 36 4V10C36 12.2091 34.2091 14 32 14H4C1.79086 14 0 12.2091 0 10V4Z" fill="#5241BF"/>
<path d="M9.1084 4.38672H6.8916V10.5H5.66602V4.38672H3.46875V3.39062H9.1084V4.38672ZM11.8184 10.5977C11.0664 10.5977 10.4561 10.3617 9.9873 9.88965C9.52181 9.41439 9.28906 8.78288 9.28906 7.99512V7.84863C9.28906 7.32129 9.38997 6.85091 9.5918 6.4375C9.79688 6.02083 10.0833 5.69694 10.4512 5.46582C10.819 5.2347 11.2292 5.11914 11.6816 5.11914C12.401 5.11914 12.9561 5.34863 13.3467 5.80762C13.7406 6.2666 13.9375 6.91602 13.9375 7.75586V8.23438H10.4854C10.5212 8.67057 10.666 9.01562 10.9199 9.26953C11.1771 9.52344 11.4993 9.65039 11.8867 9.65039C12.4303 9.65039 12.873 9.43066 13.2148 8.99121L13.8545 9.60156C13.6429 9.91732 13.3597 10.1631 13.0049 10.3389C12.6533 10.5114 12.2578 10.5977 11.8184 10.5977ZM11.6768 6.07129C11.3512 6.07129 11.0876 6.18522 10.8857 6.41309C10.6872 6.64095 10.5602 6.95833 10.5049 7.36523H12.7656V7.27734C12.7396 6.88021 12.6338 6.58073 12.4482 6.37891C12.2627 6.17383 12.0055 6.07129 11.6768 6.07129ZM17.8242 9.06445C17.8242 8.85286 17.7363 8.69173 17.5605 8.58105C17.388 8.47038 17.0999 8.37272 16.6963 8.28809C16.2926 8.20345 15.9557 8.09603 15.6855 7.96582C15.0931 7.67936 14.7969 7.26432 14.7969 6.7207C14.7969 6.26497 14.9889 5.88411 15.373 5.57812C15.7572 5.27214 16.2454 5.11914 16.8379 5.11914C17.4694 5.11914 17.9788 5.27539 18.3662 5.58789C18.7568 5.90039 18.9521 6.30566 18.9521 6.80371H17.7656C17.7656 6.57585 17.681 6.38704 17.5117 6.2373C17.3424 6.08431 17.1178 6.00781 16.8379 6.00781C16.5775 6.00781 16.3643 6.06803 16.1982 6.18848C16.0355 6.30892 15.9541 6.47005 15.9541 6.67188C15.9541 6.85417 16.0306 6.99577 16.1836 7.09668C16.3366 7.19759 16.6458 7.30013 17.1113 7.4043C17.5768 7.50521 17.9414 7.62728 18.2051 7.77051C18.472 7.91048 18.6689 8.07975 18.7959 8.27832C18.9261 8.47689 18.9912 8.71777 18.9912 9.00098C18.9912 9.47624 18.7943 9.86198 18.4004 10.1582C18.0065 10.4512 17.4906 10.5977 16.8525 10.5977C16.4196 10.5977 16.0339 10.5195 15.6953 10.3633C15.3568 10.207 15.0931 9.99219 14.9043 9.71875C14.7155 9.44531 14.6211 9.15072 14.6211 8.83496H15.7734C15.7897 9.11491 15.8955 9.33138 16.0908 9.48438C16.2861 9.63411 16.5449 9.70898 16.8672 9.70898C17.1797 9.70898 17.4173 9.65039 17.5801 9.5332C17.7428 9.41276 17.8242 9.25651 17.8242 9.06445ZM21.5156 3.93262V5.2168H22.4482V6.0957H21.5156V9.04492C21.5156 9.24674 21.5547 9.39323 21.6328 9.48438C21.7142 9.57227 21.8574 9.61621 22.0625 9.61621C22.1992 9.61621 22.3376 9.59993 22.4775 9.56738V10.4854C22.2074 10.5602 21.9469 10.5977 21.6963 10.5977C20.7848 10.5977 20.3291 10.0947 20.3291 9.08887V6.0957H19.46V5.2168H20.3291V3.93262H21.5156Z" fill="white"/>
<g clip-path="url(#clip0)">
<path d="M27.9999 4.88783L29.9999 6.88783L31.9999 4.89389C32.0392 4.85382 32.0865 4.82236 32.1387 4.80149C32.1908 4.78063 32.2467 4.77082 32.3029 4.77267C32.4131 4.7798 32.5169 4.82679 32.5949 4.90486C32.673 4.98293 32.72 5.08674 32.7271 5.19692C32.7277 5.25109 32.7172 5.30481 32.6964 5.35481C32.6755 5.40482 32.6448 5.45007 32.6059 5.48783L30.5999 7.49995L32.6059 9.51207C32.6847 9.58843 32.7283 9.69389 32.7271 9.80298C32.72 9.91315 32.673 10.017 32.5949 10.095C32.5169 10.1731 32.4131 10.2201 32.3029 10.2272C32.2467 10.2291 32.1908 10.2193 32.1387 10.1984C32.0865 10.1775 32.0392 10.1461 31.9999 10.106L29.9999 8.11207L28.0059 10.106C27.9665 10.1461 27.9193 10.1775 27.8671 10.1984C27.815 10.2193 27.759 10.2291 27.7029 10.2272C27.5907 10.2214 27.4846 10.1742 27.4051 10.0947C27.3256 10.0152 27.2784 9.90915 27.2726 9.79692C27.272 9.74275 27.2825 9.68903 27.3033 9.63902C27.3242 9.58902 27.3549 9.54376 27.3938 9.50601L29.3999 7.49995L27.3877 5.48783C27.35 5.44956 27.3203 5.40408 27.3005 5.3541C27.2808 5.30411 27.2712 5.25066 27.2726 5.19692C27.2797 5.08674 27.3267 4.98293 27.4048 4.90486C27.4828 4.82679 27.5867 4.7798 27.6968 4.77267C27.7525 4.77003 27.8082 4.77889 27.8603 4.7987C27.9125 4.81851 27.96 4.84885 27.9999 4.88783Z" fill="white"/>
</g>
<defs>
<clipPath id="clip0">
<rect width="6" height="6" fill="white" transform="translate(27 4.5)"/>
</clipPath>
</defs>
</svg>
