<svg width="39" height="14" viewBox="0 0 39 14" fill="none" xmlns="http://www.w3.org/2000/svg">
<path d="M0 4C0 1.79086 1.79086 0 4 0H35C37.2091 0 39 1.79086 39 4V10C39 12.2091 37.2091 14 35 14H4C1.79086 14 0 12.2091 0 10V4Z" fill="#5241BF"/>
<path d="M8.87012 4.38672H6.65332V10.5H5.42773V4.38672H3.23047V3.39062H8.87012V4.38672ZM8.45508 7.80957C8.45508 7.29199 8.55762 6.8265 8.7627 6.41309C8.96777 5.99642 9.25586 5.67741 9.62695 5.45605C9.99805 5.23145 10.4245 5.11914 10.9062 5.11914C11.6191 5.11914 12.1969 5.34863 12.6396 5.80762C13.0856 6.2666 13.3265 6.87533 13.3623 7.63379L13.3672 7.91211C13.3672 8.43294 13.2663 8.89844 13.0645 9.30859C12.8659 9.71875 12.5794 10.0361 12.2051 10.2607C11.834 10.4854 11.4043 10.5977 10.916 10.5977C10.1706 10.5977 9.57324 10.3503 9.12402 9.85547C8.67806 9.35742 8.45508 8.69499 8.45508 7.86816V7.80957ZM9.6416 7.91211C9.6416 8.45573 9.75391 8.88216 9.97852 9.19141C10.2031 9.4974 10.5156 9.65039 10.916 9.65039C11.3164 9.65039 11.6273 9.49414 11.8486 9.18164C12.0732 8.86914 12.1855 8.41178 12.1855 7.80957C12.1855 7.27572 12.07 6.85254 11.8389 6.54004C11.611 6.22754 11.3001 6.07129 10.9062 6.07129C10.5189 6.07129 10.2113 6.22591 9.9834 6.53516C9.75553 6.84115 9.6416 7.30013 9.6416 7.91211ZM14.4854 10.5V3.39062H16.585C17.2132 3.39062 17.7699 3.5306 18.2549 3.81055C18.7432 4.09049 19.1208 4.48763 19.3877 5.00195C19.6546 5.51628 19.7881 6.10547 19.7881 6.76953V7.12598C19.7881 7.7998 19.653 8.39225 19.3828 8.90332C19.1159 9.41439 18.7334 9.80827 18.2354 10.085C17.7406 10.3617 17.1725 10.5 16.5312 10.5H14.4854ZM15.7207 4.38672V9.51367H16.5264C17.1742 9.51367 17.6706 9.31185 18.0156 8.9082C18.3639 8.5013 18.5413 7.91862 18.5479 7.16016V6.76465C18.5479 5.99316 18.3802 5.40397 18.0449 4.99707C17.7096 4.59017 17.223 4.38672 16.585 4.38672H15.7207ZM20.6816 7.80957C20.6816 7.29199 20.7842 6.8265 20.9893 6.41309C21.1943 5.99642 21.4824 5.67741 21.8535 5.45605C22.2246 5.23145 22.651 5.11914 23.1328 5.11914C23.8457 5.11914 24.4235 5.34863 24.8662 5.80762C25.3122 6.2666 25.5531 6.87533 25.5889 7.63379L25.5938 7.91211C25.5938 8.43294 25.4928 8.89844 25.291 9.30859C25.0924 9.71875 24.806 10.0361 24.4316 10.2607C24.0605 10.4854 23.6309 10.5977 23.1426 10.5977C22.3971 10.5977 21.7998 10.3503 21.3506 9.85547C20.9046 9.35742 20.6816 8.69499 20.6816 7.86816V7.80957ZM21.8682 7.91211C21.8682 8.45573 21.9805 8.88216 22.2051 9.19141C22.4297 9.4974 22.7422 9.65039 23.1426 9.65039C23.543 9.65039 23.8538 9.49414 24.0752 9.18164C24.2998 8.86914 24.4121 8.41178 24.4121 7.80957C24.4121 7.27572 24.2965 6.85254 24.0654 6.54004C23.8376 6.22754 23.5267 6.07129 23.1328 6.07129C22.7454 6.07129 22.4378 6.22591 22.21 6.53516C21.9821 6.84115 21.8682 7.30013 21.8682 7.91211Z" fill="white"/>
<g clip-path="url(#clip0)">
<path d="M30.9999 4.88783L32.9999 6.88783L34.9999 4.89389C35.0392 4.85382 35.0865 4.82236 35.1387 4.80149C35.1908 4.78063 35.2467 4.77082 35.3029 4.77267C35.4131 4.7798 35.5169 4.82679 35.5949 4.90486C35.673 4.98293 35.72 5.08674 35.7271 5.19692C35.7277 5.25109 35.7172 5.30481 35.6964 5.35481C35.6755 5.40482 35.6448 5.45007 35.6059 5.48783L33.5999 7.49995L35.6059 9.51207C35.6847 9.58843 35.7283 9.69389 35.7271 9.80298C35.72 9.91315 35.673 10.017 35.5949 10.095C35.5169 10.1731 35.4131 10.2201 35.3029 10.2272C35.2467 10.2291 35.1908 10.2193 35.1387 10.1984C35.0865 10.1775 35.0392 10.1461 34.9999 10.106L32.9999 8.11207L31.0059 10.106C30.9665 10.1461 30.9193 10.1775 30.8671 10.1984C30.815 10.2193 30.759 10.2291 30.7029 10.2272C30.5907 10.2214 30.4846 10.1742 30.4051 10.0947C30.3256 10.0152 30.2784 9.90915 30.2726 9.79692C30.272 9.74275 30.2825 9.68903 30.3033 9.63902C30.3242 9.58902 30.3549 9.54376 30.3938 9.50601L32.3999 7.49995L30.3877 5.48783C30.35 5.44956 30.3203 5.40408 30.3005 5.3541C30.2808 5.30411 30.2712 5.25066 30.2726 5.19692C30.2797 5.08674 30.3267 4.98293 30.4048 4.90486C30.4828 4.82679 30.5867 4.7798 30.6968 4.77267C30.7525 4.77003 30.8082 4.77889 30.8603 4.7987C30.9125 4.81851 30.96 4.84885 30.9999 4.88783Z" fill="white"/>
</g>
<defs>
<clipPath id="clip0">
<rect width="6" height="6" fill="white" transform="translate(30 4.5)"/>
</clipPath>
</defs>
</svg>
